 <svg
                      width="33"
                      height="26"
                      viewBox="0 0 33 26"
                      fill="none"
                      xmlns="http://www.w3.org/2000/svg"
                    >
                      <mask
                        id="path-1-outside-1_6_8"
                        maskUnits="userSpaceOnUse"
                        x="-0.694275"
                        y="0.155762"
                        width="33"
                        height="26"
                        fill="black"
                      >
                        <rect
                          fill="white"
                          x="-0.694275"
                          y="0.155762"
                          width="33"
                          height="26"
                        />
                        <path d="M12.873 15.3782C12.873 15.5954 12.8089 15.8077 12.6888 15.9882C12.5686 16.1688 12.3979 16.3095 12.1981 16.3927C11.9983 16.4758 11.7785 16.4975 11.5664 16.4551C11.3543 16.4128 11.1595 16.3082 11.0066 16.1546C10.8537 16.0011 10.7496 15.8054 10.7074 15.5924C10.6652 15.3794 10.6869 15.1586 10.7696 14.958C10.8524 14.7574 10.9925 14.5859 11.1723 14.4652C11.3521 14.3446 11.5635 14.2802 11.7797 14.2802C12.0697 14.2802 12.3478 14.3958 12.5528 14.6018C12.7578 14.8077 12.873 15.087 12.873 15.3782ZM20.5261 14.2802C20.3098 14.2802 20.0985 14.3446 19.9187 14.4652C19.7389 14.5859 19.5988 14.7574 19.516 14.958C19.4333 15.1586 19.4116 15.3794 19.4538 15.5924C19.496 15.8054 19.6001 16.0011 19.753 16.1546C19.9059 16.3082 20.1007 16.4128 20.3128 16.4551C20.5249 16.4975 20.7447 16.4758 20.9445 16.3927C21.1442 16.3095 21.315 16.1688 21.4351 15.9882C21.5553 15.8077 21.6194 15.5954 21.6194 15.3782C21.6194 15.087 21.5042 14.8077 21.2992 14.6018C21.0941 14.3958 20.816 14.2802 20.5261 14.2802ZM31.4296 20.802C29.2298 22.7221 26.2633 24.1802 22.8507 25.018C22.7231 25.0494 22.5922 25.0654 22.4608 25.0655C22.1573 25.0649 21.86 24.979 21.6024 24.8177C21.3449 24.6564 21.1373 24.4261 21.0032 24.1526L19.5342 21.2019C18.4128 21.3459 17.2834 21.4179 16.1529 21.4174C15.0224 21.4179 13.893 21.3459 12.7716 21.2019L11.3025 24.1526C11.1391 24.4869 10.8668 24.7551 10.5307 24.9125C10.1947 25.0699 9.81513 25.1072 9.4551 25.018C6.04251 24.1802 3.07599 22.7223 0.876282 20.802C0.636489 20.5935 0.461542 20.3201 0.372357 20.0144C0.283172 19.7088 0.283523 19.3838 0.373366 19.0783L5.01632 3.53463C5.08613 3.29953 5.20747 3.08312 5.37142 2.90126C5.53537 2.7194 5.73778 2.57672 5.96379 2.48367C7.30539 1.93207 8.69289 1.5006 10.1101 1.1943C10.5059 1.10676 10.9199 1.16955 11.2724 1.37054C11.6248 1.57154 11.8906 1.8965 12.0185 2.28273L12.9663 5.13886C15.0831 4.88286 17.2227 4.88286 19.3394 5.13886L20.2873 2.28286C20.4152 1.89664 20.681 1.57168 21.0334 1.37068C21.3858 1.16968 21.7999 1.1069 22.1957 1.19443C23.6129 1.50069 25.0005 1.93216 26.3421 2.48381C26.5681 2.57682 26.7705 2.71948 26.9345 2.90132C27.0984 3.08316 27.2197 3.29955 27.2895 3.53463L31.9324 19.0783C32.0222 19.3838 32.0226 19.7088 31.9334 20.0144C31.8442 20.3201 31.6693 20.5935 31.4295 20.802H31.4296ZM30.8852 19.3937L26.2422 3.85018C26.2189 3.77155 26.1783 3.69917 26.1234 3.63837C26.0685 3.57756 26.0008 3.52988 25.9252 3.4988C24.6433 2.97184 23.3175 2.55971 21.9633 2.26722C21.8311 2.23797 21.6927 2.25883 21.5748 2.32579C21.4569 2.39274 21.3678 2.50107 21.3246 2.62998L20.4396 5.29657C21.5262 5.47469 22.598 5.73377 23.6463 6.07164C23.7146 6.0939 23.7779 6.12945 23.8325 6.17627C23.8871 6.22308 23.932 6.28023 23.9646 6.34447C23.9972 6.40871 24.0169 6.47877 24.0226 6.55065C24.0282 6.62253 24.0197 6.69482 23.9976 6.76341C23.9754 6.83199 23.94 6.89552 23.8934 6.95036C23.8468 7.00521 23.7899 7.05029 23.7259 7.08305C23.662 7.1158 23.5922 7.13559 23.5206 7.14127C23.4491 7.14695 23.3771 7.13841 23.3088 7.11615C21.1587 6.41533 18.6841 6.04488 16.1529 6.04488C13.6221 6.04488 11.1477 6.41547 8.99673 7.11615C8.85882 7.16109 8.70878 7.14916 8.57962 7.083C8.45047 7.01683 8.35277 6.90185 8.30802 6.76334C8.26328 6.62483 8.27515 6.47414 8.34103 6.34442C8.40691 6.2147 8.5214 6.11658 8.65931 6.07164C9.70768 5.73382 10.7796 5.47475 11.8662 5.29657L10.9812 2.62998C10.938 2.50104 10.8488 2.39269 10.7309 2.32573C10.613 2.25878 10.4746 2.23794 10.3423 2.26722C8.98825 2.55971 7.66258 2.9718 6.38075 3.49867C6.30512 3.52975 6.23738 3.57744 6.18249 3.63824C6.1276 3.69904 6.08697 3.77141 6.06356 3.85004L1.42061 19.394C1.39098 19.4971 1.39153 19.6065 1.42218 19.7093C1.45284 19.812 1.51231 19.9038 1.59348 19.9735C3.66241 21.7795 6.47054 23.155 9.71475 23.9515C9.83408 23.9791 9.95917 23.9655 10.0698 23.9129C10.1805 23.8603 10.2703 23.7718 10.3248 23.6617L11.6358 21.0279C10.6279 20.8525 9.63338 20.6069 8.65945 20.2927C8.59116 20.2705 8.52791 20.2349 8.4733 20.1881C8.4187 20.1413 8.3738 20.0842 8.34119 20.0199C8.30857 19.9557 8.28888 19.8856 8.28322 19.8137C8.27757 19.7419 8.28606 19.6696 8.30823 19.601C8.33039 19.5324 8.36579 19.4689 8.4124 19.414C8.45901 19.3592 8.51592 19.3141 8.57988 19.2813C8.64384 19.2486 8.71359 19.2288 8.78516 19.2231C8.85673 19.2174 8.92872 19.226 8.997 19.2482C11.1471 19.9489 13.6216 20.3194 16.1529 20.3194C18.6841 20.3194 21.1585 19.9488 23.3088 19.2481C23.4467 19.2031 23.5967 19.215 23.7259 19.2812C23.8551 19.3474 23.9528 19.4623 23.9976 19.6008C24.0423 19.7393 24.0305 19.89 23.9646 20.0198C23.8987 20.1495 23.7843 20.2476 23.6463 20.2926C22.6724 20.6067 21.6778 20.8523 20.6698 21.0277L21.9811 23.6615C22.0357 23.7716 22.1255 23.86 22.2361 23.9126C22.3467 23.9651 22.4717 23.9788 22.591 23.9514C25.8353 23.1549 28.6434 21.7793 30.7124 19.9733C30.7936 19.9036 30.853 19.8119 30.8836 19.7091C30.9143 19.6064 30.9148 19.4969 30.8852 19.3939V19.3937Z" />
                      </mask>
                      <path
                        d="M12.873 15.3782C12.873 15.5954 12.8089 15.8077 12.6888 15.9882C12.5686 16.1688 12.3979 16.3095 12.1981 16.3927C11.9983 16.4758 11.7785 16.4975 11.5664 16.4551C11.3543 16.4128 11.1595 16.3082 11.0066 16.1546C10.8537 16.0011 10.7496 15.8054 10.7074 15.5924C10.6652 15.3794 10.6869 15.1586 10.7696 14.958C10.8524 14.7574 10.9925 14.5859 11.1723 14.4652C11.3521 14.3446 11.5635 14.2802 11.7797 14.2802C12.0697 14.2802 12.3478 14.3958 12.5528 14.6018C12.7578 14.8077 12.873 15.087 12.873 15.3782ZM20.5261 14.2802C20.3098 14.2802 20.0985 14.3446 19.9187 14.4652C19.7389 14.5859 19.5988 14.7574 19.516 14.958C19.4333 15.1586 19.4116 15.3794 19.4538 15.5924C19.496 15.8054 19.6001 16.0011 19.753 16.1546C19.9059 16.3082 20.1007 16.4128 20.3128 16.4551C20.5249 16.4975 20.7447 16.4758 20.9445 16.3927C21.1442 16.3095 21.315 16.1688 21.4351 15.9882C21.5553 15.8077 21.6194 15.5954 21.6194 15.3782C21.6194 15.087 21.5042 14.8077 21.2992 14.6018C21.0941 14.3958 20.816 14.2802 20.5261 14.2802ZM31.4296 20.802C29.2298 22.7221 26.2633 24.1802 22.8507 25.018C22.7231 25.0494 22.5922 25.0654 22.4608 25.0655C22.1573 25.0649 21.86 24.979 21.6024 24.8177C21.3449 24.6564 21.1373 24.4261 21.0032 24.1526L19.5342 21.2019C18.4128 21.3459 17.2834 21.4179 16.1529 21.4174C15.0224 21.4179 13.893 21.3459 12.7716 21.2019L11.3025 24.1526C11.1391 24.4869 10.8668 24.7551 10.5307 24.9125C10.1947 25.0699 9.81513 25.1072 9.4551 25.018C6.04251 24.1802 3.07599 22.7223 0.876282 20.802C0.636489 20.5935 0.461542 20.3201 0.372357 20.0144C0.283172 19.7088 0.283523 19.3838 0.373366 19.0783L5.01632 3.53463C5.08613 3.29953 5.20747 3.08312 5.37142 2.90126C5.53537 2.7194 5.73778 2.57672 5.96379 2.48367C7.30539 1.93207 8.69289 1.5006 10.1101 1.1943C10.5059 1.10676 10.9199 1.16955 11.2724 1.37054C11.6248 1.57154 11.8906 1.8965 12.0185 2.28273L12.9663 5.13886C15.0831 4.88286 17.2227 4.88286 19.3394 5.13886L20.2873 2.28286C20.4152 1.89664 20.681 1.57168 21.0334 1.37068C21.3858 1.16968 21.7999 1.1069 22.1957 1.19443C23.6129 1.50069 25.0005 1.93216 26.3421 2.48381C26.5681 2.57682 26.7705 2.71948 26.9345 2.90132C27.0984 3.08316 27.2197 3.29955 27.2895 3.53463L31.9324 19.0783C32.0222 19.3838 32.0226 19.7088 31.9334 20.0144C31.8442 20.3201 31.6693 20.5935 31.4295 20.802H31.4296ZM30.8852 19.3937L26.2422 3.85018C26.2189 3.77155 26.1783 3.69917 26.1234 3.63837C26.0685 3.57756 26.0008 3.52988 25.9252 3.4988C24.6433 2.97184 23.3175 2.55971 21.9633 2.26722C21.8311 2.23797 21.6927 2.25883 21.5748 2.32579C21.4569 2.39274 21.3678 2.50107 21.3246 2.62998L20.4396 5.29657C21.5262 5.47469 22.598 5.73377 23.6463 6.07164C23.7146 6.0939 23.7779 6.12945 23.8325 6.17627C23.8871 6.22308 23.932 6.28023 23.9646 6.34447C23.9972 6.40871 24.0169 6.47877 24.0226 6.55065C24.0282 6.62253 24.0197 6.69482 23.9976 6.76341C23.9754 6.83199 23.94 6.89552 23.8934 6.95036C23.8468 7.00521 23.7899 7.05029 23.7259 7.08305C23.662 7.1158 23.5922 7.13559 23.5206 7.14127C23.4491 7.14695 23.3771 7.13841 23.3088 7.11615C21.1587 6.41533 18.6841 6.04488 16.1529 6.04488C13.6221 6.04488 11.1477 6.41547 8.99673 7.11615C8.85882 7.16109 8.70878 7.14916 8.57962 7.083C8.45047 7.01683 8.35277 6.90185 8.30802 6.76334C8.26328 6.62483 8.27515 6.47414 8.34103 6.34442C8.40691 6.2147 8.5214 6.11658 8.65931 6.07164C9.70768 5.73382 10.7796 5.47475 11.8662 5.29657L10.9812 2.62998C10.938 2.50104 10.8488 2.39269 10.7309 2.32573C10.613 2.25878 10.4746 2.23794 10.3423 2.26722C8.98825 2.55971 7.66258 2.9718 6.38075 3.49867C6.30512 3.52975 6.23738 3.57744 6.18249 3.63824C6.1276 3.69904 6.08697 3.77141 6.06356 3.85004L1.42061 19.394C1.39098 19.4971 1.39153 19.6065 1.42218 19.7093C1.45284 19.812 1.51231 19.9038 1.59348 19.9735C3.66241 21.7795 6.47054 23.155 9.71475 23.9515C9.83408 23.9791 9.95917 23.9655 10.0698 23.9129C10.1805 23.8603 10.2703 23.7718 10.3248 23.6617L11.6358 21.0279C10.6279 20.8525 9.63338 20.6069 8.65945 20.2927C8.59116 20.2705 8.52791 20.2349 8.4733 20.1881C8.4187 20.1413 8.3738 20.0842 8.34119 20.0199C8.30857 19.9557 8.28888 19.8856 8.28322 19.8137C8.27757 19.7419 8.28606 19.6696 8.30823 19.601C8.33039 19.5324 8.36579 19.4689 8.4124 19.414C8.45901 19.3592 8.51592 19.3141 8.57988 19.2813C8.64384 19.2486 8.71359 19.2288 8.78516 19.2231C8.85673 19.2174 8.92872 19.226 8.997 19.2482C11.1471 19.9489 13.6216 20.3194 16.1529 20.3194C18.6841 20.3194 21.1585 19.9488 23.3088 19.2481C23.4467 19.2031 23.5967 19.215 23.7259 19.2812C23.8551 19.3474 23.9528 19.4623 23.9976 19.6008C24.0423 19.7393 24.0305 19.89 23.9646 20.0198C23.8987 20.1495 23.7843 20.2476 23.6463 20.2926C22.6724 20.6067 21.6778 20.8523 20.6698 21.0277L21.9811 23.6615C22.0357 23.7716 22.1255 23.86 22.2361 23.9126C22.3467 23.9651 22.4717 23.9788 22.591 23.9514C25.8353 23.1549 28.6434 21.7793 30.7124 19.9733C30.7936 19.9036 30.853 19.8119 30.8836 19.7091C30.9143 19.6064 30.9148 19.4969 30.8852 19.3939V19.3937Z"
                        fill="white"
                      />
                      <path
                        d="M12.873 15.3782C12.873 15.5954 12.8089 15.8077 12.6888 15.9882C12.5686 16.1688 12.3979 16.3095 12.1981 16.3927C11.9983 16.4758 11.7785 16.4975 11.5664 16.4551C11.3543 16.4128 11.1595 16.3082 11.0066 16.1546C10.8537 16.0011 10.7496 15.8054 10.7074 15.5924C10.6652 15.3794 10.6869 15.1586 10.7696 14.958C10.8524 14.7574 10.9925 14.5859 11.1723 14.4652C11.3521 14.3446 11.5635 14.2802 11.7797 14.2802C12.0697 14.2802 12.3478 14.3958 12.5528 14.6018C12.7578 14.8077 12.873 15.087 12.873 15.3782ZM20.5261 14.2802C20.3098 14.2802 20.0985 14.3446 19.9187 14.4652C19.7389 14.5859 19.5988 14.7574 19.516 14.958C19.4333 15.1586 19.4116 15.3794 19.4538 15.5924C19.496 15.8054 19.6001 16.0011 19.753 16.1546C19.9059 16.3082 20.1007 16.4128 20.3128 16.4551C20.5249 16.4975 20.7447 16.4758 20.9445 16.3927C21.1442 16.3095 21.315 16.1688 21.4351 15.9882C21.5553 15.8077 21.6194 15.5954 21.6194 15.3782C21.6194 15.087 21.5042 14.8077 21.2992 14.6018C21.0941 14.3958 20.816 14.2802 20.5261 14.2802ZM31.4296 20.802C29.2298 22.7221 26.2633 24.1802 22.8507 25.018C22.7231 25.0494 22.5922 25.0654 22.4608 25.0655C22.1573 25.0649 21.86 24.979 21.6024 24.8177C21.3449 24.6564 21.1373 24.4261 21.0032 24.1526L19.5342 21.2019C18.4128 21.3459 17.2834 21.4179 16.1529 21.4174C15.0224 21.4179 13.893 21.3459 12.7716 21.2019L11.3025 24.1526C11.1391 24.4869 10.8668 24.7551 10.5307 24.9125C10.1947 25.0699 9.81513 25.1072 9.4551 25.018C6.04251 24.1802 3.07599 22.7223 0.876282 20.802C0.636489 20.5935 0.461542 20.3201 0.372357 20.0144C0.283172 19.7088 0.283523 19.3838 0.373366 19.0783L5.01632 3.53463C5.08613 3.29953 5.20747 3.08312 5.37142 2.90126C5.53537 2.7194 5.73778 2.57672 5.96379 2.48367C7.30539 1.93207 8.69289 1.5006 10.1101 1.1943C10.5059 1.10676 10.9199 1.16955 11.2724 1.37054C11.6248 1.57154 11.8906 1.8965 12.0185 2.28273L12.9663 5.13886C15.0831 4.88286 17.2227 4.88286 19.3394 5.13886L20.2873 2.28286C20.4152 1.89664 20.681 1.57168 21.0334 1.37068C21.3858 1.16968 21.7999 1.1069 22.1957 1.19443C23.6129 1.50069 25.0005 1.93216 26.3421 2.48381C26.5681 2.57682 26.7705 2.71948 26.9345 2.90132C27.0984 3.08316 27.2197 3.29955 27.2895 3.53463L31.9324 19.0783C32.0222 19.3838 32.0226 19.7088 31.9334 20.0144C31.8442 20.3201 31.6693 20.5935 31.4295 20.802H31.4296ZM30.8852 19.3937L26.2422 3.85018C26.2189 3.77155 26.1783 3.69917 26.1234 3.63837C26.0685 3.57756 26.0008 3.52988 25.9252 3.4988C24.6433 2.97184 23.3175 2.55971 21.9633 2.26722C21.8311 2.23797 21.6927 2.25883 21.5748 2.32579C21.4569 2.39274 21.3678 2.50107 21.3246 2.62998L20.4396 5.29657C21.5262 5.47469 22.598 5.73377 23.6463 6.07164C23.7146 6.0939 23.7779 6.12945 23.8325 6.17627C23.8871 6.22308 23.932 6.28023 23.9646 6.34447C23.9972 6.40871 24.0169 6.47877 24.0226 6.55065C24.0282 6.62253 24.0197 6.69482 23.9976 6.76341C23.9754 6.83199 23.94 6.89552 23.8934 6.95036C23.8468 7.00521 23.7899 7.05029 23.7259 7.08305C23.662 7.1158 23.5922 7.13559 23.5206 7.14127C23.4491 7.14695 23.3771 7.13841 23.3088 7.11615C21.1587 6.41533 18.6841 6.04488 16.1529 6.04488C13.6221 6.04488 11.1477 6.41547 8.99673 7.11615C8.85882 7.16109 8.70878 7.14916 8.57962 7.083C8.45047 7.01683 8.35277 6.90185 8.30802 6.76334C8.26328 6.62483 8.27515 6.47414 8.34103 6.34442C8.40691 6.2147 8.5214 6.11658 8.65931 6.07164C9.70768 5.73382 10.7796 5.47475 11.8662 5.29657L10.9812 2.62998C10.938 2.50104 10.8488 2.39269 10.7309 2.32573C10.613 2.25878 10.4746 2.23794 10.3423 2.26722C8.98825 2.55971 7.66258 2.9718 6.38075 3.49867C6.30512 3.52975 6.23738 3.57744 6.18249 3.63824C6.1276 3.69904 6.08697 3.77141 6.06356 3.85004L1.42061 19.394C1.39098 19.4971 1.39153 19.6065 1.42218 19.7093C1.45284 19.812 1.51231 19.9038 1.59348 19.9735C3.66241 21.7795 6.47054 23.155 9.71475 23.9515C9.83408 23.9791 9.95917 23.9655 10.0698 23.9129C10.1805 23.8603 10.2703 23.7718 10.3248 23.6617L11.6358 21.0279C10.6279 20.8525 9.63338 20.6069 8.65945 20.2927C8.59116 20.2705 8.52791 20.2349 8.4733 20.1881C8.4187 20.1413 8.3738 20.0842 8.34119 20.0199C8.30857 19.9557 8.28888 19.8856 8.28322 19.8137C8.27757 19.7419 8.28606 19.6696 8.30823 19.601C8.33039 19.5324 8.36579 19.4689 8.4124 19.414C8.45901 19.3592 8.51592 19.3141 8.57988 19.2813C8.64384 19.2486 8.71359 19.2288 8.78516 19.2231C8.85673 19.2174 8.92872 19.226 8.997 19.2482C11.1471 19.9489 13.6216 20.3194 16.1529 20.3194C18.6841 20.3194 21.1585 19.9488 23.3088 19.2481C23.4467 19.2031 23.5967 19.215 23.7259 19.2812C23.8551 19.3474 23.9528 19.4623 23.9976 19.6008C24.0423 19.7393 24.0305 19.89 23.9646 20.0198C23.8987 20.1495 23.7843 20.2476 23.6463 20.2926C22.6724 20.6067 21.6778 20.8523 20.6698 21.0277L21.9811 23.6615C22.0357 23.7716 22.1255 23.86 22.2361 23.9126C22.3467 23.9651 22.4717 23.9788 22.591 23.9514C25.8353 23.1549 28.6434 21.7793 30.7124 19.9733C30.7936 19.9036 30.853 19.8119 30.8836 19.7091C30.9143 19.6064 30.9148 19.4969 30.8852 19.3939V19.3937Z"
                        stroke="white"
                        strokeWidth="0.512977"
                        mask="url(#path-1-outside-1_6_8)"
                      />
                    </svg>