 <svg
                      width="25"
                      height="25"
                      viewBox="0 0 25 25"
                      fill="none"
                      xmlns="http://www.w3.org/2000/svg"
                    >
                      <path
                        fillRule="evenodd"
                        clipRule="evenodd"
                        d="M7.80216 0.118771C9.08863 0.0595475 9.49881 0.0463867 12.7759 0.0463867C16.0529 0.0463867 16.4631 0.0606443 17.7484 0.118771C19.0338 0.176898 19.9112 0.381988 20.6789 0.679203C21.4828 0.982999 22.2122 1.45788 22.8154 2.07206C23.4295 2.67416 23.9033 3.4024 24.206 4.2074C24.5043 4.97512 24.7083 5.8525 24.7676 7.13568C24.8268 8.42435 24.8399 8.83453 24.8399 12.1105C24.8399 15.3875 24.8257 15.7977 24.7676 17.0842C24.7094 18.3674 24.5043 19.2447 24.206 20.0125C23.9033 20.8176 23.4287 21.547 22.8154 22.15C22.2122 22.7642 21.4828 23.238 20.6789 23.5407C19.9112 23.839 19.0338 24.043 17.7506 24.1022C16.4631 24.1614 16.0529 24.1746 12.7759 24.1746C9.49881 24.1746 9.08863 24.1603 7.80216 24.1022C6.51898 24.0441 5.64159 23.839 4.87387 23.5407C4.06878 23.2379 3.33934 22.7633 2.73633 22.15C2.12258 21.5475 1.64762 20.8184 1.34458 20.0135C1.04736 19.2458 0.84337 18.3684 0.784146 17.0853C0.724922 15.7966 0.711761 15.3864 0.711761 12.1105C0.711761 8.83343 0.726019 8.42325 0.784146 7.13788C0.842273 5.8525 1.04736 4.97512 1.34458 4.2074C1.64807 3.40249 2.12339 2.67341 2.73743 2.07096C3.33958 1.45734 4.06829 0.982388 4.87278 0.679203C5.64049 0.381988 6.51788 0.177995 7.80106 0.118771H7.80216ZM17.6508 2.29031C16.3786 2.23218 15.997 2.22012 12.7759 2.22012C9.55474 2.22012 9.17307 2.23218 7.90086 2.29031C6.72406 2.34405 6.08576 2.54036 5.66023 2.70597C5.09761 2.92532 4.6951 3.18524 4.27286 3.60749C3.8726 3.99688 3.56457 4.47093 3.37134 4.99486C3.20574 5.42039 3.00942 6.05869 2.95568 7.23549C2.89756 8.5077 2.88549 8.88936 2.88549 12.1105C2.88549 15.3316 2.89756 15.7133 2.95568 16.9855C3.00942 18.1623 3.20574 18.8006 3.37134 19.2261C3.56437 19.7492 3.87255 20.2241 4.27286 20.6135C4.6622 21.0138 5.13709 21.322 5.66023 21.515C6.08576 21.6806 6.72406 21.8769 7.90086 21.9306C9.17307 21.9888 9.55364 22.0008 12.7759 22.0008C15.9981 22.0008 16.3786 21.9888 17.6508 21.9306C18.8276 21.8769 19.4659 21.6806 19.8915 21.515C20.4541 21.2956 20.8566 21.0357 21.2788 20.6135C21.6791 20.2241 21.9873 19.7492 22.1804 19.2261C22.346 18.8006 22.5423 18.1623 22.596 16.9855C22.6541 15.7133 22.6662 15.3316 22.6662 12.1105C22.6662 8.88936 22.6541 8.5077 22.596 7.23549C22.5423 6.05869 22.346 5.42039 22.1804 4.99486C21.961 4.43223 21.7011 4.02973 21.2788 3.60749C20.8894 3.20726 20.4154 2.89923 19.8915 2.70597C19.4659 2.54036 18.8276 2.34405 17.6508 2.29031V2.29031ZM11.2349 15.8295C12.0955 16.1877 13.0537 16.2361 13.946 15.9663C14.8382 15.6965 15.6091 15.1253 16.127 14.3503C16.6449 13.5752 16.8777 12.6444 16.7856 11.7169C16.6934 10.7893 16.2821 9.92246 15.6219 9.26445C15.201 8.84382 14.6921 8.52175 14.1318 8.32142C13.5715 8.12108 12.9737 8.04747 12.3816 8.10587C11.7894 8.16428 11.2176 8.35325 10.7072 8.65919C10.1968 8.96513 9.76064 9.38042 9.43004 9.87517C9.09944 10.3699 8.88265 10.9318 8.79527 11.5204C8.70789 12.109 8.75209 12.7096 8.92471 13.2791C9.09732 13.8485 9.39405 14.3726 9.79352 14.8136C10.193 15.2546 10.6853 15.6016 11.2349 15.8295ZM8.3911 7.72573C8.96692 7.14991 9.65051 6.69315 10.4028 6.38153C11.1552 6.0699 11.9615 5.90951 12.7759 5.90951C13.5902 5.90951 14.3965 6.0699 15.1489 6.38153C15.9012 6.69315 16.5848 7.14991 17.1606 7.72573C17.7364 8.30154 18.1932 8.98513 18.5048 9.73747C18.8164 10.4898 18.9768 11.2962 18.9768 12.1105C18.9768 12.9248 18.8164 13.7311 18.5048 14.4835C18.1932 15.2358 17.7364 15.9194 17.1606 16.4952C15.9977 17.6581 14.4204 18.3114 12.7759 18.3114C11.1313 18.3114 9.55401 17.6581 8.3911 16.4952C7.22819 15.3323 6.57488 13.7551 6.57488 12.1105C6.57488 10.4659 7.22819 8.88863 8.3911 7.72573V7.72573ZM20.3521 6.83299C20.4948 6.69838 20.609 6.53652 20.688 6.35697C20.767 6.17743 20.8092 5.98386 20.8121 5.78772C20.8149 5.59158 20.7784 5.39686 20.7047 5.21509C20.6309 5.03332 20.5215 4.8682 20.3828 4.72949C20.2441 4.59078 20.0789 4.48132 19.8972 4.40757C19.7154 4.33383 19.5207 4.29731 19.3245 4.30017C19.1284 4.30303 18.9348 4.34521 18.7553 4.42422C18.5757 4.50323 18.4139 4.61746 18.2793 4.76016C18.0175 5.03766 17.8742 5.40627 17.8797 5.78772C17.8853 6.16917 18.0393 6.53344 18.3091 6.8032C18.5788 7.07296 18.9431 7.22696 19.3245 7.23252C19.706 7.23809 20.0746 7.09476 20.3521 6.83299V6.83299Z"
                        fill="white"
                      />
                    </svg>